<svg width="541" height="249" viewBox="0 0 541 249" fill="none" xmlns="http://www.w3.org/2000/svg">
<path fill-rule="evenodd" clip-rule="evenodd" d="M66.4229 174.477C84.7651 174.477 99.6344 163.488 99.6344 149.933C95.7433 143.832 93.0195 138.598 91.4466 133.794" fill="#4285F4"/>
<path d="M90.7418 117.56C84.6781 122.376 76.0265 125.388 66.4229 125.388C76.405 125.388 85.3585 128.643 91.4466 133.794C89.5528 128.011 89.3274 122.853 90.7418 117.56Z" fill="#4285F4"/>
<path d="M66.4229 76.2991C48.0807 76.2991 33.2114 87.288 33.2114 100.844C38.119 107.4 41.3893 112.97 42.9802 118.23C48.987 122.654 57.2729 125.388 66.4229 125.388C76.0265 125.388 84.6781 122.376 90.7418 117.56C92.1317 112.358 95.1049 107.027 99.6344 100.844C99.6344 87.288 84.7651 76.2991 66.4229 76.2991Z" fill="#4285F4"/>
<path d="M66.4229 174.477C84.7651 174.477 99.6344 163.488 99.6344 149.933C95.7433 143.832 93.0195 138.598 91.4466 133.794C85.3585 128.643 76.405 125.388 66.4229 125.388C57.3211 125.388 49.0744 128.094 43.0754 132.477C41.5347 137.757 38.2609 143.348 33.2114 149.933C33.2114 163.488 48.0807 174.477 66.4229 174.477Z" fill="#4285F4"/>
<path d="M43.0754 132.477C49.0744 128.094 57.3211 125.388 66.4229 125.388C57.2729 125.388 48.987 122.654 42.9802 118.23C44.4436 123.067 44.4862 127.642 43.0754 132.477Z" fill="#4285F4"/>
<path fill-rule="evenodd" clip-rule="evenodd" d="M270.499 174.477C288.842 174.477 303.711 163.488 303.711 149.933C299.82 143.832 297.096 138.598 295.523 133.794" fill="#34A853"/>
<path d="M294.818 117.56C288.754 122.376 280.103 125.388 270.499 125.388C280.481 125.388 289.435 128.643 295.523 133.794C293.629 128.011 293.404 122.853 294.818 117.56Z" fill="#34A853"/>
<path d="M270.499 76.2991C252.157 76.2991 237.288 87.288 237.288 100.844C242.195 107.4 245.466 112.97 247.057 118.23C253.063 122.654 261.349 125.388 270.499 125.388C280.103 125.388 288.754 122.376 294.818 117.56C296.208 112.358 299.181 107.027 303.711 100.844C303.711 87.288 288.842 76.2991 270.499 76.2991Z" fill="#34A853"/>
<path d="M270.499 174.477C288.842 174.477 303.711 163.488 303.711 149.933C299.82 143.832 297.096 138.598 295.523 133.794C289.435 128.643 280.481 125.388 270.499 125.388C261.397 125.388 253.151 128.094 247.152 132.477C245.611 137.757 242.337 143.348 237.288 149.933C237.288 163.488 252.157 174.477 270.499 174.477Z" fill="#34A853"/>
<path d="M247.152 132.477C253.151 128.094 261.397 125.388 270.499 125.388C261.349 125.388 253.063 122.654 247.057 118.23C248.52 123.067 248.563 127.642 247.152 132.477Z" fill="#34A853"/>
<path fill-rule="evenodd" clip-rule="evenodd" d="M168.462 98.1783C186.804 98.1783 201.673 87.1893 201.673 73.6337C197.782 67.533 195.058 62.2987 193.485 57.4954" fill="#EA4335"/>
<path d="M192.781 41.2606C186.717 46.0767 178.065 49.0891 168.462 49.0891C178.444 49.0891 187.397 52.3437 193.485 57.4954C191.592 51.7123 191.366 46.554 192.781 41.2606Z" fill="#EA4335"/>
<path d="M168.462 0C150.119 0 135.25 10.989 135.25 24.5446C140.158 31.1005 143.428 36.6713 145.019 41.9307C151.026 46.3545 159.312 49.0891 168.462 49.0891C178.065 49.0891 186.717 46.0767 192.781 41.2606C194.17 36.0593 197.144 30.7276 201.673 24.5446C201.673 10.989 186.804 0 168.462 0Z" fill="#EA4335"/>
<path d="M168.462 98.1783C186.804 98.1783 201.673 87.1893 201.673 73.6337C197.782 67.533 195.058 62.2987 193.485 57.4954C187.397 52.3437 178.444 49.0891 168.462 49.0891C159.36 49.0891 151.113 51.795 145.114 56.1778C143.573 61.4577 140.3 67.0488 135.25 73.6337C135.25 87.1893 150.119 98.1783 168.462 98.1783Z" fill="#EA4335"/>
<path d="M145.114 56.1778C151.113 51.795 159.36 49.0891 168.462 49.0891C159.312 49.0891 151.026 46.3545 145.019 41.9307C146.482 46.7684 146.525 51.3426 145.114 56.1778Z" fill="#EA4335"/>
<path fill-rule="evenodd" clip-rule="evenodd" d="M168.462 249C186.804 249 201.673 238.011 201.673 224.456C197.782 218.355 195.058 213.121 193.485 208.317" fill="#EA4335"/>
<path d="M192.781 192.083C186.717 196.899 178.065 199.911 168.462 199.911C178.444 199.911 187.397 203.166 193.485 208.317C191.592 202.534 191.366 197.376 192.781 192.083Z" fill="#EA4335"/>
<path d="M168.462 150.822C150.12 150.822 135.25 161.811 135.25 175.366C140.158 181.922 143.428 187.493 145.019 192.753C151.026 197.176 159.312 199.911 168.462 199.911C178.065 199.911 186.717 196.899 192.781 192.083C194.171 186.881 197.144 181.549 201.673 175.366C201.673 161.811 186.804 150.822 168.462 150.822Z" fill="#EA4335"/>
<path d="M168.462 249C186.804 249 201.673 238.011 201.673 224.456C197.782 218.355 195.058 213.121 193.485 208.317C187.397 203.166 178.444 199.911 168.462 199.911C159.36 199.911 151.113 202.617 145.114 207C143.574 212.28 140.3 217.871 135.25 224.456C135.25 238.011 150.12 249 168.462 249Z" fill="#EA4335"/>
<path d="M145.114 207C151.113 202.617 159.36 199.911 168.462 199.911C159.312 199.911 151.026 197.176 145.019 192.753C146.482 197.59 146.525 202.165 145.114 207Z" fill="#EA4335"/>
<path fill-rule="evenodd" clip-rule="evenodd" d="M234.885 124.5C234.885 110.944 220.015 99.9554 201.673 99.9554C193.418 102.831 186.336 104.844 179.836 106.007" fill="#FBBC04"/>
<path d="M157.869 106.527C164.385 111.009 168.462 117.403 168.462 124.5C168.462 117.123 172.865 110.506 179.836 106.007C172.011 107.406 165.031 107.573 157.869 106.527Z" fill="#FBBC04"/>
<path d="M102.039 124.5C102.039 138.056 116.908 149.045 135.25 149.045C144.121 145.418 151.659 143.001 158.775 141.825C164.761 137.386 168.462 131.262 168.462 124.5C168.462 117.403 164.385 111.009 157.869 106.527C150.831 105.5 143.616 103.303 135.25 99.9554C116.908 99.9554 102.039 110.944 102.039 124.5Z" fill="#FBBC04"/>
<path d="M234.885 124.5C234.885 110.944 220.015 99.9554 201.673 99.9554C193.418 102.831 186.336 104.844 179.836 106.007C172.865 110.506 168.462 117.123 168.462 124.5C168.462 131.227 172.123 137.321 178.053 141.755C185.198 142.893 192.763 145.313 201.673 149.045C220.015 149.045 234.885 138.056 234.885 124.5Z" fill="#FBBC04"/>
<path d="M178.053 141.755C172.123 137.321 168.462 131.227 168.462 124.5C168.462 131.262 164.761 137.386 158.775 141.825C165.321 140.744 171.511 140.712 178.053 141.755Z" fill="#FBBC04"/>
<path fill-rule="evenodd" clip-rule="evenodd" d="M132.846 50.8655C132.846 37.3099 117.977 26.3209 99.6345 26.3209C91.3796 29.1965 84.297 31.2096 77.7975 32.372" fill="#34A853"/>
<path d="M55.8301 32.8929C62.3468 37.3742 66.423 43.768 66.423 50.8655C66.423 43.4883 70.8268 36.8714 77.7975 32.372C69.9725 33.7716 62.9927 33.9382 55.8301 32.8929Z" fill="#34A853"/>
<path d="M-1.65566e-06 50.8655C-7.41264e-07 64.4211 14.8693 75.41 33.2115 75.41C42.0824 71.7831 49.6203 69.3663 56.7369 68.1905C62.7227 63.7512 66.423 57.6277 66.423 50.8655C66.423 43.768 62.3468 37.3742 55.8301 32.8929C48.7922 31.8657 41.5778 29.6684 33.2115 26.3209C14.8693 26.3209 -2.57006e-06 37.3099 -1.65566e-06 50.8655Z" fill="#34A853"/>
<path d="M132.846 50.8655C132.846 37.3099 117.977 26.3209 99.6345 26.3209C91.3796 29.1965 84.297 31.2096 77.7975 32.372C70.8268 36.8714 66.423 43.4883 66.423 50.8655C66.423 57.5921 70.0844 63.6867 76.0147 68.1202C83.159 69.2588 90.7243 71.6783 99.6345 75.41C117.977 75.41 132.846 64.4211 132.846 50.8655Z" fill="#34A853"/>
<path d="M76.0147 68.1202C70.0844 63.6867 66.423 57.5921 66.423 50.8655C66.423 57.6277 62.7227 63.7512 56.7369 68.1905C63.2828 67.109 69.4722 67.0775 76.0147 68.1202Z" fill="#34A853"/>
<path fill-rule="evenodd" clip-rule="evenodd" d="M132.846 202.576C132.846 189.021 117.977 178.032 99.6345 178.032C91.3796 180.907 84.297 182.921 77.7975 184.083" fill="#34A853"/>
<path d="M55.8301 184.604C62.3468 189.085 66.423 195.479 66.423 202.576C66.423 195.199 70.8268 188.582 77.7975 184.083C69.9725 185.483 62.9927 185.649 55.8301 184.604Z" fill="#34A853"/>
<path d="M-1.65566e-06 202.576C-7.41264e-07 216.132 14.8693 227.121 33.2115 227.121C42.0824 223.494 49.6203 221.077 56.7369 219.901C62.7227 215.462 66.423 209.339 66.423 202.576C66.423 195.479 62.3468 189.085 55.8301 184.604C48.7922 183.577 41.5778 181.379 33.2115 178.032C14.8693 178.032 -2.57006e-06 189.021 -1.65566e-06 202.576Z" fill="#34A853"/>
<path d="M132.846 202.576C132.846 189.021 117.977 178.032 99.6345 178.032C91.3796 180.907 84.297 182.921 77.7975 184.083C70.8268 188.582 66.423 195.199 66.423 202.576C66.423 209.303 70.0844 215.398 76.0147 219.831C83.159 220.97 90.7243 223.389 99.6345 227.121C117.977 227.121 132.846 216.132 132.846 202.576Z" fill="#34A853"/>
<path d="M76.0147 219.831C70.0844 215.398 66.423 209.303 66.423 202.576C66.423 209.339 62.7227 215.462 56.7369 219.901C63.2828 218.82 69.4722 218.788 76.0147 219.831Z" fill="#34A853"/>
<path fill-rule="evenodd" clip-rule="evenodd" d="M474.577 174.477C456.235 174.477 441.366 163.488 441.366 149.933C445.257 143.832 447.981 138.598 449.553 133.794" fill="#4285F4"/>
<path d="M450.258 117.56C456.322 122.376 464.973 125.388 474.577 125.388C464.595 125.388 455.642 128.643 449.553 133.794C451.447 128.011 451.673 122.853 450.258 117.56Z" fill="#4285F4"/>
<path d="M474.577 76.2991C492.919 76.2991 507.789 87.288 507.789 100.844C502.881 107.4 499.611 112.97 498.02 118.23C492.013 122.654 483.727 125.388 474.577 125.388C464.973 125.388 456.322 122.376 450.258 117.56C448.868 112.358 445.895 107.027 441.366 100.844C441.366 87.288 456.235 76.2991 474.577 76.2991Z" fill="#4285F4"/>
<path d="M474.577 174.477C456.235 174.477 441.366 163.488 441.366 149.933C445.257 143.832 447.981 138.598 449.553 133.794C455.642 128.643 464.595 125.388 474.577 125.388C483.679 125.388 491.926 128.094 497.925 132.477C499.465 137.757 502.739 143.348 507.789 149.933C507.789 163.488 492.919 174.477 474.577 174.477Z" fill="#4285F4"/>
<path d="M497.925 132.477C491.926 128.094 483.679 125.388 474.577 125.388C483.727 125.388 492.013 122.654 498.02 118.23C496.556 123.067 496.514 127.642 497.925 132.477Z" fill="#4285F4"/>
<path fill-rule="evenodd" clip-rule="evenodd" d="M372.537 98.1783C354.195 98.1783 339.325 87.1893 339.325 73.6337C343.216 67.533 345.94 62.2987 347.513 57.4954" fill="#EA4335"/>
<path d="M348.218 41.2606C354.282 46.0767 362.933 49.0891 372.537 49.0891C362.555 49.0891 353.601 52.3437 347.513 57.4954C349.407 51.7123 349.632 46.554 348.218 41.2606Z" fill="#EA4335"/>
<path d="M372.537 0C390.879 0 405.748 10.989 405.748 24.5446C400.841 31.1005 397.57 36.6713 395.979 41.9307C389.973 46.3545 381.687 49.0891 372.537 49.0891C362.933 49.0891 354.282 46.0767 348.218 41.2606C346.828 36.0593 343.855 30.7276 339.325 24.5446C339.325 10.989 354.195 0 372.537 0Z" fill="#EA4335"/>
<path d="M372.537 98.1783C354.195 98.1783 339.325 87.1893 339.325 73.6337C343.216 67.533 345.94 62.2987 347.513 57.4954C353.601 52.3437 362.555 49.0891 372.537 49.0891C381.639 49.0891 389.885 51.795 395.884 56.1778C397.425 61.4577 400.699 67.0488 405.748 73.6337C405.748 87.1893 390.879 98.1783 372.537 98.1783Z" fill="#EA4335"/>
<path d="M395.884 56.1778C389.885 51.795 381.639 49.0891 372.537 49.0891C381.687 49.0891 389.973 46.3545 395.979 41.9307C394.516 46.7684 394.474 51.3426 395.884 56.1778Z" fill="#EA4335"/>
<path fill-rule="evenodd" clip-rule="evenodd" d="M372.537 249C354.195 249 339.325 238.011 339.325 224.456C343.216 218.355 345.94 213.121 347.513 208.317" fill="#EA4335"/>
<path d="M348.218 192.083C354.282 196.899 362.933 199.911 372.537 199.911C362.555 199.911 353.601 203.166 347.513 208.317C349.407 202.534 349.632 197.376 348.218 192.083Z" fill="#EA4335"/>
<path d="M372.537 150.822C390.879 150.822 405.748 161.811 405.748 175.366C400.841 181.922 397.57 187.493 395.979 192.753C389.973 197.176 381.687 199.911 372.537 199.911C362.933 199.911 354.282 196.899 348.218 192.083C346.828 186.881 343.855 181.549 339.325 175.366C339.325 161.811 354.195 150.822 372.537 150.822Z" fill="#EA4335"/>
<path d="M372.537 249C354.195 249 339.325 238.011 339.325 224.456C343.216 218.355 345.94 213.121 347.513 208.317C353.601 203.166 362.555 199.911 372.537 199.911C381.639 199.911 389.885 202.617 395.884 207C397.425 212.28 400.699 217.871 405.748 224.456C405.748 238.011 390.879 249 372.537 249Z" fill="#EA4335"/>
<path d="M395.884 207C389.885 202.617 381.639 199.911 372.537 199.911C381.687 199.911 389.973 197.176 395.979 192.753C394.516 197.59 394.474 202.165 395.884 207Z" fill="#EA4335"/>
<path fill-rule="evenodd" clip-rule="evenodd" d="M306.116 124.5C306.116 110.944 320.985 99.9554 339.327 99.9554C347.582 102.831 354.665 104.844 361.164 106.007" fill="#FBBC04"/>
<path d="M383.132 106.527C376.615 111.009 372.539 117.403 372.539 124.5C372.539 117.123 368.135 110.506 361.164 106.007C368.989 107.406 375.969 107.573 383.132 106.527Z" fill="#FBBC04"/>
<path d="M438.962 124.5C438.962 138.056 424.092 149.045 405.75 149.045C396.879 145.418 389.341 143.001 382.225 141.825C376.239 137.386 372.539 131.262 372.539 124.5C372.539 117.403 376.615 111.009 383.132 106.527C390.169 105.5 397.384 103.303 405.75 99.9554C424.092 99.9554 438.962 110.944 438.962 124.5Z" fill="#FBBC04"/>
<path d="M306.116 124.5C306.116 110.944 320.985 99.9554 339.327 99.9554C347.582 102.831 354.665 104.844 361.164 106.007C368.135 110.506 372.539 117.123 372.539 124.5C372.539 131.227 368.877 137.321 362.947 141.755C355.803 142.893 348.237 145.313 339.327 149.045C320.985 149.045 306.116 138.056 306.116 124.5Z" fill="#FBBC04"/>
<path d="M362.947 141.755C368.877 137.321 372.539 131.227 372.539 124.5C372.539 131.262 376.239 137.386 382.225 141.825C375.679 140.744 369.489 140.712 362.947 141.755Z" fill="#FBBC04"/>
<path fill-rule="evenodd" clip-rule="evenodd" d="M408.154 50.8655C408.154 37.3099 423.023 26.3209 441.366 26.3209C449.62 29.1965 456.703 31.2096 463.202 32.372" fill="#34A853"/>
<path d="M485.17 32.8929C478.653 37.3742 474.577 43.768 474.577 50.8655C474.577 43.4883 470.173 36.8714 463.202 32.372C471.028 33.7716 478.007 33.9382 485.17 32.8929Z" fill="#34A853"/>
<path d="M541 50.8655C541 64.4211 526.131 75.41 507.789 75.41C498.918 71.7831 491.38 69.3663 484.263 68.1905C478.277 63.7512 474.577 57.6277 474.577 50.8655C474.577 43.768 478.653 37.3742 485.17 32.8929C492.208 31.8657 499.422 29.6684 507.789 26.3209C526.131 26.3209 541 37.3099 541 50.8655Z" fill="#34A853"/>
<path d="M408.154 50.8655C408.154 37.3099 423.023 26.3209 441.366 26.3209C449.62 29.1965 456.703 31.2096 463.202 32.372C470.173 36.8714 474.577 43.4883 474.577 50.8655C474.577 57.5921 470.916 63.6867 464.985 68.1202C457.841 69.2588 450.276 71.6783 441.366 75.41C423.023 75.41 408.154 64.4211 408.154 50.8655Z" fill="#34A853"/>
<path d="M464.985 68.1202C470.916 63.6867 474.577 57.5921 474.577 50.8655C474.577 57.6277 478.277 63.7512 484.263 68.1905C477.717 67.109 471.528 67.0775 464.985 68.1202Z" fill="#34A853"/>
<path fill-rule="evenodd" clip-rule="evenodd" d="M408.154 202.576C408.154 189.021 423.023 178.032 441.366 178.032C449.62 180.907 456.703 182.921 463.202 184.083" fill="#34A853"/>
<path d="M485.17 184.604C478.653 189.085 474.577 195.479 474.577 202.576C474.577 195.199 470.173 188.582 463.202 184.083C471.028 185.483 478.007 185.649 485.17 184.604Z" fill="#34A853"/>
<path d="M541 202.576C541 216.132 526.131 227.121 507.789 227.121C498.918 223.494 491.38 221.077 484.263 219.901C478.277 215.462 474.577 209.339 474.577 202.576C474.577 195.479 478.653 189.085 485.17 184.604C492.208 183.577 499.422 181.379 507.789 178.032C526.131 178.032 541 189.021 541 202.576Z" fill="#34A853"/>
<path d="M408.154 202.576C408.154 189.021 423.023 178.032 441.366 178.032C449.62 180.907 456.703 182.921 463.202 184.083C470.173 188.582 474.577 195.199 474.577 202.576C474.577 209.303 470.916 215.398 464.985 219.831C457.841 220.97 450.276 223.389 441.366 227.121C423.023 227.121 408.154 216.132 408.154 202.576Z" fill="#34A853"/>
<path d="M464.985 219.831C470.916 215.398 474.577 209.303 474.577 202.576C474.577 209.339 478.277 215.462 484.263 219.901C477.717 218.82 471.528 218.788 464.985 219.831Z" fill="#34A853"/>
<path fill-rule="evenodd" clip-rule="evenodd" d="M336.923 49.0886C336.923 35.533 322.053 24.544 303.711 24.544C295.456 27.4197 288.374 29.4327 281.874 30.5952" fill="#4285F4"/>
<path d="M259.907 31.116C266.423 35.5973 270.5 41.9912 270.5 49.0886C270.5 41.7115 274.903 35.0945 281.874 30.5952C274.049 31.9947 267.069 32.1613 259.907 31.116Z" fill="#4285F4"/>
<path d="M204.077 49.0886C204.077 62.6442 218.946 73.6332 237.288 73.6332C246.159 70.0063 253.697 67.5894 260.814 66.4136C266.799 61.9744 270.5 55.8509 270.5 49.0886C270.5 41.9912 266.423 35.5973 259.907 31.116C252.869 30.0889 245.654 27.8916 237.288 24.544C218.946 24.544 204.077 35.533 204.077 49.0886Z" fill="#4285F4"/>
<path d="M336.923 49.0886C336.923 35.533 322.053 24.544 303.711 24.544C295.456 27.4197 288.374 29.4327 281.874 30.5952C274.903 35.0945 270.5 41.7115 270.5 49.0886C270.5 55.8152 274.161 61.9099 280.091 66.3434C287.236 67.4819 294.801 69.9014 303.711 73.6332C322.053 73.6332 336.923 62.6442 336.923 49.0886Z" fill="#4285F4"/>
<path d="M280.091 66.3434C274.161 61.9099 270.5 55.8152 270.5 49.0886C270.5 55.8509 266.799 61.9744 260.814 66.4136C267.359 65.3322 273.549 65.3007 280.091 66.3434Z" fill="#4285F4"/>
<path fill-rule="evenodd" clip-rule="evenodd" d="M336.923 200.799C336.923 187.243 322.053 176.254 303.711 176.254C295.456 179.13 288.374 181.143 281.874 182.306" fill="#4285F4"/>
<path d="M259.907 182.826C266.423 187.308 270.5 193.702 270.5 200.799C270.5 193.422 274.903 186.805 281.874 182.306C274.049 183.705 267.069 183.872 259.907 182.826Z" fill="#4285F4"/>
<path d="M204.077 200.799C204.077 214.355 218.946 225.344 237.288 225.344C246.159 221.717 253.697 219.3 260.814 218.124C266.799 213.685 270.5 207.561 270.5 200.799C270.5 193.702 266.423 187.308 259.907 182.826C252.869 181.799 245.654 179.602 237.288 176.254C218.946 176.254 204.077 187.243 204.077 200.799Z" fill="#4285F4"/>
<path d="M336.923 200.799C336.923 187.243 322.053 176.254 303.711 176.254C295.456 179.13 288.374 181.143 281.874 182.306C274.903 186.805 270.5 193.422 270.5 200.799C270.5 207.526 274.161 213.62 280.091 218.054C287.236 219.192 294.801 221.612 303.711 225.344C322.053 225.344 336.923 214.355 336.923 200.799Z" fill="#4285F4"/>
<path d="M280.091 218.054C274.161 213.62 270.5 207.526 270.5 200.799C270.5 207.561 266.799 213.685 260.814 218.124C267.359 217.043 273.549 217.011 280.091 218.054Z" fill="#4285F4"/>
</svg>
