<svg width="361" height="294" viewBox="0 0 361 294" fill="none" xmlns="http://www.w3.org/2000/svg">
<g opacity="0.57">
<path fill-rule="evenodd" clip-rule="evenodd" d="M454.484 86.7798C437.826 24.6096 373.923 -12.2849 311.753 4.37355C287.307 25.0593 265.775 40.7241 245.173 51.9583" fill="#34A853"/>
<path d="M171.356 74.2978C198.951 88.9323 220.624 114.554 229.346 147.105C220.281 113.272 227.076 78.9245 245.173 51.9583C220.371 65.4839 196.918 72.587 171.356 74.2978Z" fill="#34A853"/>
<path d="M4.20831 207.431C20.8668 269.601 84.77 306.496 146.94 289.837C172.551 265.147 195.13 247.216 217.806 235.36C232.64 209.564 237.657 178.119 229.346 147.105C220.624 114.554 198.951 88.9323 171.356 74.2978C146.239 75.9789 119.086 72.4536 86.6146 64.6991C24.4444 81.3576 -12.4501 145.261 4.20831 207.431Z" fill="#34A853"/>
<path d="M454.484 86.7798C437.826 24.6096 373.923 -12.2849 311.753 4.37355C287.307 25.0593 265.775 40.7241 245.173 51.9583C227.076 78.9245 220.281 113.272 229.346 147.105C237.613 177.956 257.513 202.582 283.061 217.53C308.676 216.263 337.292 220.489 372.078 229.512C434.248 212.853 471.143 148.95 454.484 86.7798Z" fill="#34A853"/>
<path d="M283.061 217.53C257.513 202.582 237.613 177.956 229.346 147.105C237.657 178.119 232.64 209.564 217.806 235.36C238.664 224.455 259.605 218.69 283.061 217.53Z" fill="#34A853"/>
</g>
</svg>
