<svg width="199" height="350" viewBox="0 0 199 350" fill="none" xmlns="http://www.w3.org/2000/svg">
<g opacity="0.57">
<path fill-rule="evenodd" clip-rule="evenodd" d="M183.024 291.417C215.206 235.677 196.108 164.402 140.368 132.22C108.455 129.562 82.1526 125.413 59.6417 118.789" fill="#EA4335"/>
<path d="M-8.35167 82.3888C0.812917 112.25 -1.97918 145.693 -18.8288 174.877C-1.31517 144.543 27.7766 125.06 59.6417 118.789C32.5394 110.815 10.933 99.254 -8.35167 82.3888Z" fill="#EA4335"/>
<path d="M-220.682 58.337C-252.864 114.077 -233.766 185.352 -178.026 217.534C-142.457 218.184 -113.813 221.471 -89.3945 229.123C-60.6652 221.371 -34.8827 202.683 -18.8288 174.877C-1.97918 145.693 0.812917 112.25 -8.35167 82.3888C-27.3008 65.817 -44.0083 44.1241 -61.4855 15.6804C-117.226 -16.5012 -188.5 2.59678 -220.682 58.337Z" fill="#EA4335"/>
<path d="M183.024 291.417C215.206 235.677 196.108 164.402 140.368 132.22C108.455 129.562 82.1526 125.413 59.6417 118.789C27.7766 125.06 -1.31517 144.543 -18.8288 174.877C-34.7982 202.537 -38.1404 234.022 -30.6442 262.657C-11.6362 279.874 5.61017 303.096 23.8278 334.074C79.568 366.255 150.843 347.157 183.024 291.417Z" fill="#EA4335"/>
<path d="M-30.6442 262.657C-38.1404 234.022 -34.7982 202.537 -18.8288 174.877C-34.8827 202.683 -60.6652 221.371 -89.3945 229.123C-66.9347 236.161 -48.0508 246.891 -30.6442 262.657Z" fill="#EA4335"/>
</g>
</svg>
