<svg width="350" height="332" viewBox="0 0 350 332" fill="none" xmlns="http://www.w3.org/2000/svg">
<g opacity="0.57">
<path fill-rule="evenodd" clip-rule="evenodd" d="M420.199 292.153C452.381 236.413 433.283 165.138 377.543 132.957C345.63 130.298 319.327 126.149 296.817 119.526" fill="#FBBC04"/>
<path d="M228.823 83.1251C237.988 112.986 235.196 146.429 218.346 175.613C235.86 145.279 264.951 125.797 296.817 119.526C269.714 111.551 248.108 99.9904 228.823 83.1251Z" fill="#FBBC04"/>
<path d="M16.4927 59.0734C-15.689 114.814 3.40905 186.088 59.1493 218.27C94.7175 218.92 123.362 222.208 147.78 229.859C176.51 222.107 202.292 203.42 218.346 175.613C235.196 146.429 237.988 112.986 228.823 83.1251C209.874 66.5534 193.167 44.8604 175.689 16.4167C119.949 -15.7649 48.6743 3.33311 16.4927 59.0734Z" fill="#FBBC04"/>
<path d="M420.199 292.153C452.381 236.413 433.283 165.138 377.543 132.957C345.63 130.298 319.327 126.149 296.817 119.526C264.951 125.797 235.86 145.279 218.346 175.613C202.377 203.273 199.034 234.758 206.531 263.393C225.539 280.61 242.785 303.832 261.003 334.81C316.743 366.992 388.018 347.894 420.199 292.153Z" fill="#FBBC04"/>
<path d="M206.531 263.393C199.034 234.758 202.377 203.273 218.346 175.613C202.292 203.42 176.51 222.107 147.78 229.859C170.24 236.897 189.124 247.627 206.531 263.393Z" fill="#FBBC04"/>
</g>
</svg>
